<mxfile host="Electron" agent="Mozilla/5.0 (Windows NT 10.0; Win64; x64) AppleWebKit/537.36 (KHTML, like Gecko) draw.io/26.0.16 Chrome/132.0.6834.196 Electron/34.2.0 Safari/537.36" version="26.0.16">
  <diagram name="Page-1" id="lSjUMZfvMA8hhWLQU78y">
    <mxGraphModel dx="2600" dy="1035" grid="1" gridSize="10" guides="1" tooltips="1" connect="1" arrows="1" fold="1" page="1" pageScale="1" pageWidth="850" pageHeight="1100" math="0" shadow="0">
      <root>
        <mxCell id="0" />
        <mxCell id="1" parent="0" />
        <mxCell id="a-Cqv5iyh34GKB-4RarY-5" value="org.example" style="shape=folder;fontStyle=1;tabWidth=110;tabHeight=30;tabPosition=left;html=1;boundedLbl=1;labelInHeader=1;container=1;collapsible=0;whiteSpace=wrap;" parent="1" vertex="1">
          <mxGeometry x="-550" y="220" width="1500" height="830" as="geometry" />
        </mxCell>
        <mxCell id="a-Cqv5iyh34GKB-4RarY-6" value="" style="html=1;strokeColor=none;resizeWidth=1;resizeHeight=1;fillColor=none;part=1;connectable=0;allowArrows=0;deletable=0;whiteSpace=wrap;" parent="a-Cqv5iyh34GKB-4RarY-5" vertex="1">
          <mxGeometry width="1500" height="79.8076923076923" relative="1" as="geometry">
            <mxPoint y="30" as="offset" />
          </mxGeometry>
        </mxCell>
        <mxCell id="a-Cqv5iyh34GKB-4RarY-12" value="Model" style="shape=folder;fontStyle=1;tabWidth=40;tabHeight=30;tabPosition=left;html=1;boundedLbl=1;whiteSpace=wrap;" parent="a-Cqv5iyh34GKB-4RarY-5" vertex="1">
          <mxGeometry x="17.99712328767123" y="64.83916666666669" width="286.8904109589041" height="111.28916666666667" as="geometry" />
        </mxCell>
        <mxCell id="jcSeLcif83pzqpo4W0sb-6" style="edgeStyle=orthogonalEdgeStyle;rounded=0;orthogonalLoop=1;jettySize=auto;html=1;dashed=1;dashPattern=12 12;endArrow=open;endFill=0;" edge="1" parent="a-Cqv5iyh34GKB-4RarY-5" source="a-Cqv5iyh34GKB-4RarY-11" target="a-Cqv5iyh34GKB-4RarY-10">
          <mxGeometry relative="1" as="geometry" />
        </mxCell>
        <mxCell id="jcSeLcif83pzqpo4W0sb-7" style="edgeStyle=orthogonalEdgeStyle;rounded=0;orthogonalLoop=1;jettySize=auto;html=1;dashed=1;dashPattern=12 12;endArrow=open;endFill=0;" edge="1" parent="a-Cqv5iyh34GKB-4RarY-5" source="a-Cqv5iyh34GKB-4RarY-11" target="a-Cqv5iyh34GKB-4RarY-12">
          <mxGeometry relative="1" as="geometry" />
        </mxCell>
        <mxCell id="a-Cqv5iyh34GKB-4RarY-11" value="Presentation Layer" style="shape=folder;fontStyle=1;tabWidth=40;tabHeight=30;tabPosition=left;html=1;boundedLbl=1;whiteSpace=wrap;" parent="a-Cqv5iyh34GKB-4RarY-5" vertex="1">
          <mxGeometry x="264.17712328767124" y="350.0047222222223" width="286.8904109589041" height="107.30055555555558" as="geometry" />
        </mxCell>
        <mxCell id="a-Cqv5iyh34GKB-4RarY-10" value="Business Logic" style="shape=folder;fontStyle=1;tabWidth=40;tabHeight=30;tabPosition=left;html=1;boundedLbl=1;whiteSpace=wrap;" parent="a-Cqv5iyh34GKB-4RarY-5" vertex="1">
          <mxGeometry x="1110.001506849315" y="350.0097222222222" width="286.8904109589041" height="107.30055555555558" as="geometry" />
        </mxCell>
        <mxCell id="a-Cqv5iyh34GKB-4RarY-14" value="Conține ferestrele pentru Client, Order și Product și controllerele lor, cât și view-ul și controller-ul principal" style="text;html=1;align=center;verticalAlign=middle;whiteSpace=wrap;rounded=0;fillColor=#e1d5e7;strokeColor=#9673a6;" parent="a-Cqv5iyh34GKB-4RarY-5" vertex="1">
          <mxGeometry x="320" y="466.28000000000003" width="205.48" height="63.3" as="geometry" />
        </mxCell>
        <mxCell id="a-Cqv5iyh34GKB-4RarY-15" value="Conține clasele Bill, Client, Order și Product" style="text;html=1;align=center;verticalAlign=middle;whiteSpace=wrap;rounded=0;fillColor=#e1d5e7;strokeColor=#9673a6;" parent="a-Cqv5iyh34GKB-4RarY-5" vertex="1">
          <mxGeometry x="179.9958904109589" y="176.12444444444444" width="226.02739726027397" height="51.87500000000001" as="geometry" />
        </mxCell>
        <mxCell id="a-Cqv5iyh34GKB-4RarY-17" value="Conține clase cu validările pentru funcțiile care lucrează cu Client, Order și Product" style="text;html=1;align=center;verticalAlign=middle;whiteSpace=wrap;rounded=0;fillColor=#e1d5e7;strokeColor=#9673a6;" parent="a-Cqv5iyh34GKB-4RarY-5" vertex="1">
          <mxGeometry x="1135" y="470" width="239.45" height="59.58" as="geometry" />
        </mxCell>
        <mxCell id="a-Cqv5iyh34GKB-4RarY-28" value="&lt;div&gt;Conține clasele de Start și de Reflection&lt;/div&gt;" style="text;html=1;align=center;verticalAlign=middle;whiteSpace=wrap;rounded=0;fillColor=#e1d5e7;strokeColor=#9673a6;" parent="a-Cqv5iyh34GKB-4RarY-5" vertex="1">
          <mxGeometry x="1151.9897260273972" y="190.00375" width="205.47945205479454" height="77.81250000000001" as="geometry" />
        </mxCell>
        <mxCell id="jcSeLcif83pzqpo4W0sb-13" style="edgeStyle=orthogonalEdgeStyle;rounded=0;orthogonalLoop=1;jettySize=auto;html=1;endArrow=open;endFill=0;dashed=1;dashPattern=12 12;" edge="1" parent="a-Cqv5iyh34GKB-4RarY-5" source="jcSeLcif83pzqpo4W0sb-1" target="a-Cqv5iyh34GKB-4RarY-12">
          <mxGeometry relative="1" as="geometry">
            <Array as="points">
              <mxPoint x="708" y="100" />
              <mxPoint x="708" y="100" />
            </Array>
          </mxGeometry>
        </mxCell>
        <mxCell id="jcSeLcif83pzqpo4W0sb-1" value="Start" style="shape=folder;fontStyle=1;tabWidth=40;tabHeight=30;tabPosition=left;html=1;boundedLbl=1;whiteSpace=wrap;" vertex="1" parent="a-Cqv5iyh34GKB-4RarY-5">
          <mxGeometry x="1110.001506849315" y="68.82375000000008" width="286.8904109589041" height="107.30055555555558" as="geometry" />
        </mxCell>
        <mxCell id="jcSeLcif83pzqpo4W0sb-2" value="Connection" style="shape=folder;fontStyle=1;tabWidth=40;tabHeight=30;tabPosition=left;html=1;boundedLbl=1;whiteSpace=wrap;" vertex="1" parent="a-Cqv5iyh34GKB-4RarY-5">
          <mxGeometry x="1109.9971232876712" y="599.9991666666667" width="286.8904109589041" height="111.28916666666667" as="geometry" />
        </mxCell>
        <mxCell id="jcSeLcif83pzqpo4W0sb-3" value="Data Access" style="shape=folder;fontStyle=1;tabWidth=40;tabHeight=30;tabPosition=left;html=1;boundedLbl=1;whiteSpace=wrap;" vertex="1" parent="a-Cqv5iyh34GKB-4RarY-5">
          <mxGeometry x="17.997123287671343" y="609.9991666666667" width="286.8904109589041" height="111.28916666666667" as="geometry" />
        </mxCell>
        <mxCell id="jcSeLcif83pzqpo4W0sb-4" value="Conține clasa Abstract DAO și o clasă realizată prin reflexie pentru fiecare dintre obiectele din Model" style="text;html=1;align=center;verticalAlign=middle;whiteSpace=wrap;rounded=0;fillColor=#e1d5e7;strokeColor=#9673a6;" vertex="1" parent="a-Cqv5iyh34GKB-4RarY-5">
          <mxGeometry x="34.37999999999991" y="750" width="239.45" height="59.58" as="geometry" />
        </mxCell>
        <mxCell id="jcSeLcif83pzqpo4W0sb-5" value="Conține Connection Factory" style="text;html=1;align=center;verticalAlign=middle;whiteSpace=wrap;rounded=0;fillColor=#e1d5e7;strokeColor=#9673a6;" vertex="1" parent="a-Cqv5iyh34GKB-4RarY-5">
          <mxGeometry x="1135" y="730" width="239.45" height="59.58" as="geometry" />
        </mxCell>
        <mxCell id="jcSeLcif83pzqpo4W0sb-8" style="edgeStyle=orthogonalEdgeStyle;rounded=0;orthogonalLoop=1;jettySize=auto;html=1;entryX=0;entryY=0;entryDx=286.8904109589041;entryDy=70.64458333333334;entryPerimeter=0;dashed=1;dashPattern=12 12;endArrow=open;endFill=0;" edge="1" parent="a-Cqv5iyh34GKB-4RarY-5" source="a-Cqv5iyh34GKB-4RarY-10" target="jcSeLcif83pzqpo4W0sb-3">
          <mxGeometry relative="1" as="geometry">
            <Array as="points">
              <mxPoint x="708" y="440" />
              <mxPoint x="708" y="681" />
            </Array>
          </mxGeometry>
        </mxCell>
        <mxCell id="jcSeLcif83pzqpo4W0sb-9" style="edgeStyle=orthogonalEdgeStyle;rounded=0;orthogonalLoop=1;jettySize=auto;html=1;entryX=0;entryY=0;entryDx=286.8904109589041;entryDy=90.966875;entryPerimeter=0;dashed=1;dashPattern=12 12;endArrow=open;endFill=0;" edge="1" parent="a-Cqv5iyh34GKB-4RarY-5" source="a-Cqv5iyh34GKB-4RarY-10" target="a-Cqv5iyh34GKB-4RarY-12">
          <mxGeometry relative="1" as="geometry">
            <Array as="points">
              <mxPoint x="708" y="370" />
              <mxPoint x="708" y="156" />
            </Array>
          </mxGeometry>
        </mxCell>
        <mxCell id="jcSeLcif83pzqpo4W0sb-10" style="edgeStyle=orthogonalEdgeStyle;rounded=0;orthogonalLoop=1;jettySize=auto;html=1;entryX=0.25;entryY=1;entryDx=0;entryDy=0;entryPerimeter=0;dashed=1;dashPattern=12 12;endArrow=open;endFill=0;" edge="1" parent="a-Cqv5iyh34GKB-4RarY-5" source="jcSeLcif83pzqpo4W0sb-3" target="a-Cqv5iyh34GKB-4RarY-12">
          <mxGeometry relative="1" as="geometry" />
        </mxCell>
        <mxCell id="jcSeLcif83pzqpo4W0sb-11" style="edgeStyle=orthogonalEdgeStyle;rounded=0;orthogonalLoop=1;jettySize=auto;html=1;entryX=0;entryY=0;entryDx=0;entryDy=70.64458333333334;entryPerimeter=0;dashed=1;dashPattern=12 12;endArrow=open;endFill=0;" edge="1" parent="a-Cqv5iyh34GKB-4RarY-5" source="jcSeLcif83pzqpo4W0sb-3" target="jcSeLcif83pzqpo4W0sb-2">
          <mxGeometry relative="1" as="geometry">
            <Array as="points">
              <mxPoint x="1040" y="710" />
              <mxPoint x="1040" y="671" />
            </Array>
          </mxGeometry>
        </mxCell>
        <mxCell id="jcSeLcif83pzqpo4W0sb-12" style="edgeStyle=orthogonalEdgeStyle;rounded=0;orthogonalLoop=1;jettySize=auto;html=1;entryX=0.834;entryY=0.267;entryDx=0;entryDy=0;entryPerimeter=0;dashed=1;dashPattern=12 12;endArrow=open;endFill=0;" edge="1" parent="a-Cqv5iyh34GKB-4RarY-5" source="jcSeLcif83pzqpo4W0sb-1" target="a-Cqv5iyh34GKB-4RarY-11">
          <mxGeometry relative="1" as="geometry" />
        </mxCell>
      </root>
    </mxGraphModel>
  </diagram>
</mxfile>
